<svg xmlns="http://www.w3.org/2000/svg" width="76" height="23" viewBox="0 0 76 23" fill="none">
	<path d="M19.288 16H21.172L21.94 14.116H25.492L26.26 16H28.192L24.592 7.54H22.888L19.288 16ZM22.6 12.484L23.716 9.76L24.832 12.484H22.6ZM29.4885 16H31.3365V13.312H32.7645L34.5885 16H36.7485L34.6965 13C35.7645 12.604 36.4965 11.752 36.4965 10.396C36.4965 9.58 36.2445 8.92 35.7765 8.452C35.2245 7.9 34.3965 7.6 33.3285 7.6H29.4885V16ZM31.3365 11.68V9.268H33.1725C34.0725 9.268 34.6245 9.676 34.6245 10.468C34.6245 11.2 34.1085 11.68 33.2085 11.68H31.3365ZM40.1163 16H41.9643V9.304H44.5203V7.6H37.5603V9.304H40.1163V16ZM48.1616 16.06H49.7696L51.6656 10.564L53.5616 16.06H55.1696L58.0376 7.6H56.1056L54.3656 13.288L52.4816 7.576H50.8976L49.0136 13.288L47.2736 7.6H45.2936L48.1616 16.06ZM63.006 16.144C65.598 16.144 67.482 14.188 67.482 11.8C67.482 9.388 65.622 7.456 63.03 7.456C60.438 7.456 58.554 9.412 58.554 11.8C58.554 14.212 60.414 16.144 63.006 16.144ZM63.03 14.44C61.542 14.44 60.486 13.24 60.486 11.8C60.486 10.336 61.518 9.16 63.006 9.16C64.494 9.16 65.55 10.36 65.55 11.8C65.55 13.264 64.518 14.44 63.03 14.44ZM70.714 16H72.562V9.304H75.118V7.6H68.158V9.304H70.714V16Z" fill="#828282"/>
	<path fill-rule="evenodd" clip-rule="evenodd" d="M5.16296 17.1516L5.66667 16.2228C4.65926 15.8513 3.77778 15.3559 2.95926 14.6748L0 19.9999L5.16296 17.1516ZM7.05185 13.746L8.5 11.1454V5.07727L4.40741 12.198L4.47037 12.2599C5.16296 13.003 6.10741 13.4983 7.05185 13.746Z" fill="#828282"/>
	<path fill-rule="evenodd" clip-rule="evenodd" d="M11.7741 17.1516H5.16296L0 19.9999H17L11.7741 17.1516Z" fill="#828282"/>
	<path d="M14.1667 8.35913C14.1667 6.81115 13.537 5.44892 12.5296 4.39629C11.5222 3.40557 10.0741 2.78638 8.5 2.78638C6.92593 2.78638 5.54074 3.40557 4.47037 4.39629C3.46296 5.44892 2.83333 6.81115 2.83333 8.35913C2.83333 9.90712 3.46296 11.2694 4.47037 12.322C5.47778 13.3127 6.92593 13.9319 8.5 13.9319C10.0741 13.9319 11.4593 13.3127 12.5296 12.322C13.537 11.2694 14.1667 9.90712 14.1667 8.35913ZM14.4815 2.47678C15.9926 3.96285 17 6.06811 17 8.35913C17 10.6502 16.0556 12.7554 14.4815 14.2415C12.9074 15.7276 10.8296 16.7183 8.5 16.7183C6.17037 16.7183 4.02963 15.7895 2.51852 14.2415C1.00741 12.6935 0 10.6502 0 8.35913C0 6.06811 0.944444 3.96285 2.51852 2.47678C4.09259 0.990712 6.17037 0 8.5 0C10.8296 0 12.9704 0.928793 14.4815 2.47678Z" fill="#828282"/>
	<path fill-rule="evenodd" clip-rule="evenodd" d="M8.5 11.1454L11.7741 17.1516L17 19.9999L8.5 5.07727V11.1454Z" fill="#828282"/>
</svg>