<svg width="190" height="101" viewBox="0 0 190 101" fill="none" xmlns="http://www.w3.org/2000/svg">
	<path d="M80.7574 29.5323C79.712 29.5323 79.0586 28.8136 79.0586 27.8335V5.16165C79.0586 4.1816 79.712 3.46289 80.7574 3.46289H90.4272V10.9113H86.507V7.18709H82.9788V25.8081H86.507V20.9732H90.4272V29.5323H80.7574Z" fill="#E53A3E"/>
	<path d="M104.41 3.46289V29.5323H100.49V7.18709H96.3733V29.5323H92.4531V3.46289H104.41Z" fill="#E53A3E"/>
	<path d="M114.47 7.18709H110.55V25.8081H114.47V7.18709ZM108.394 29.5323C107.348 29.5323 106.695 28.8136 106.695 27.8335V5.16165C106.695 4.1816 107.348 3.46289 108.394 3.46289H116.691C117.737 3.46289 118.39 4.1816 118.39 5.16165V27.8335C118.39 28.8136 117.737 29.5323 116.691 29.5323H108.394Z" fill="#E53A3E"/>
	<path d="M124.533 17.2489H128.258V7.187H124.533V17.2489ZM124.533 20.9731V29.5322H120.613V3.39746H130.479C131.525 3.39746 132.178 4.11617 132.178 5.09622V19.209C132.178 20.189 131.525 20.9077 130.479 20.9077H124.533V20.9731Z" fill="#E53A3E"/>
	<path d="M133.484 3.46289H144.853V7.18709H141.129V29.5323H137.209V7.18709H133.484V3.46289Z" fill="#E53A3E"/>
	<path d="M82.9788 56.3861H86.507V47.7617H82.9788V56.3861ZM86.507 37.6998H82.9788V44.0375H86.507V37.6998ZM90.4272 42.9921C90.4272 44.4948 89.6432 45.4749 88.4671 45.9322C89.6432 46.3242 90.4272 47.3043 90.4272 48.8724V58.4116C90.4272 59.3916 89.7738 60.1103 88.7284 60.1103H79.0586V33.9756H88.7284C89.7738 33.9756 90.4272 34.6943 90.4272 35.6743V42.9921Z" fill="#E53A3E"/>
	<path d="M111.53 60.1098H107.348L103.951 47.7612H102.906V60.1098H98.9854V33.9751H102.906V44.037H104.016L107.348 33.9751H111.53L107.479 45.9317L111.53 60.1098Z" fill="#E53A3E"/>
	<path d="M120.48 37.6998H116.756V47.7617H120.48V37.6998ZM124.401 33.9756V60.1103H120.48V51.4859H116.756V60.1103H112.836V33.9756C112.836 33.9756 124.401 33.9756 124.401 33.9756Z" fill="#E53A3E"/>
	<path d="M133.158 60.1103V47.7617H132.374L129.695 60.1103H125.645L128.977 45.9322L125.841 33.9756H129.891L132.374 44.0375H133.158V33.9756H137.078V44.0375H137.863L140.28 33.9756H144.331L141.26 45.9322L144.527 60.1103H140.476L137.863 47.7617H137.078V60.1103H133.158Z" fill="#E53A3E"/>
	<path d="M153.281 56.3856V37.6993H151.582L150.34 56.3203H153.281V56.3856ZM157.201 33.9751V56.3856H158.508V63.5727H154.587V60.1098H148.838V63.5727H144.917V56.3856H146.42L147.923 33.9751H157.201Z" fill="#E53A3E"/>
	<path d="M167.783 37.6998H163.863V56.3208H167.783V37.6998ZM161.707 60.1103C160.661 60.1103 160.008 59.3916 160.008 58.4116V35.6743C160.008 34.6943 160.661 33.9756 161.707 33.9756H170.004C171.05 33.9756 171.703 34.6943 171.703 35.6743V58.3462C171.703 59.3263 171.05 60.045 170.004 60.045H161.707V60.1103Z" fill="#E53A3E"/>
	<path d="M185.23 33.9751H190V60.1098H186.079V48.8719L186.733 41.4235H186.537L183.793 54.8829H180.134L177.39 41.4235H177.194L177.912 48.8719V60.1098H173.992V33.9751H178.762L181.898 48.8719H182.029L185.23 33.9751Z" fill="#E53A3E"/>
	<path d="M1.63306 67.3619L0.260986 63.115C5.03057 61.5469 9.47348 58.9334 13.067 55.5359C19.274 49.6556 22.6715 41.8152 22.6715 33.5827V24.1089H27.1798V33.5827C27.1798 43.0566 23.2595 52.0077 16.1378 58.8027C12.0216 62.6576 7.05601 65.5978 1.63306 67.3619Z" fill="#E53A3E"/>
	<path d="M1.89477 56.9739L0 52.9231C2.35213 51.8123 4.4429 50.3749 6.33767 48.6108C10.7152 44.4293 13.1327 38.8757 13.1327 33.0607V27.311H17.6409V33.0607C17.6409 40.1171 14.7008 46.8467 9.4085 51.8777C7.18705 53.9685 4.63891 55.6672 1.89477 56.9739Z" fill="#E53A3E"/>
	<path d="M56.7774 43.253C51.3545 41.4889 46.3235 38.5487 42.2726 34.6938C35.1509 27.9642 31.2307 19.013 31.2307 9.47384V0H35.739V9.47384C35.739 17.7063 39.1365 25.5467 45.3435 31.427C48.937 34.8245 53.3799 37.438 58.1495 39.0061L56.7774 43.253Z" fill="#E53A3E"/>
	<path d="M56.5162 32.8641C53.7067 31.5573 51.2239 29.8586 49.0025 27.7678C43.7102 22.7369 40.77 16.0725 40.77 8.95081V3.20117H45.2783V8.95081C45.2783 14.8311 47.6957 20.3194 52.0733 24.501C53.9027 26.2651 56.0588 27.7025 58.411 28.8132L56.5162 32.8641Z" fill="#E53A3E"/>
	<path d="M30.3153 82.4554H23.3242V78.2085H27.6364C26.8524 72.9815 26.003 60.9596 32.4714 53.5765C36.0649 49.4603 41.2265 47.4348 47.8255 47.5655L47.7602 51.8124C42.4679 51.7471 38.613 53.2498 35.8689 56.3206C29.0085 64.2264 32.3407 79.8419 32.406 79.9726L32.9941 82.5207L30.3153 82.4554Z" fill="#E5ADAF"/>
	<path d="M39.0721 67.1662C38.092 67.1662 37.2426 67.0355 36.5239 66.9049L37.6346 62.7887C38.288 62.9193 43.7763 63.9647 45.6711 57.6924L49.9833 58.8684C47.8925 65.4675 42.7963 67.1662 39.0721 67.1662Z" fill="#E5ADAF"/>
	<path d="M29.6623 100.357C26.0687 100.357 23.1939 98.5932 21.6912 97.0905L24.958 94.2156L23.3246 95.653L24.958 94.2156C25.4154 94.673 29.4009 98.3319 34.6932 94.085L37.6333 97.2865C34.8239 99.5732 32.0797 100.357 29.6623 100.357Z" fill="#E5ADAF"/>
	<path d="M92.1921 86.8327C90.428 91.929 86.0505 96.3066 82.5876 96.3066C81.5422 96.3066 80.7582 95.9146 80.2355 95.1305C79.1248 93.5624 79.0594 90.7529 80.1048 87.7475C81.8689 82.6512 86.2465 78.2736 89.7093 78.2736C90.7547 78.2736 91.5388 78.6656 92.0615 79.4497C93.1722 81.0178 93.2375 83.8272 92.1921 86.8327ZM81.2809 65.6636C83.7637 65.925 87.3572 66.7743 89.9054 69.3878C91.6041 71.1519 92.6495 73.5694 93.0415 76.5095C92.0615 75.8561 90.9507 75.4641 89.7093 75.4641C89.5787 75.4641 89.3827 75.4641 89.252 75.4641L81.2809 65.6636ZM91.9961 67.4277C86.7692 62.0047 78.4714 62.7235 78.1447 62.7888L75.5312 63.0501L86.2465 76.3135C82.5876 78.0123 79.0594 81.9978 77.426 86.8327C76.1193 90.7529 76.25 94.4771 77.9487 96.7639C79.0594 98.2667 80.6929 99.1161 82.653 99.1161C87.3572 99.1161 92.7802 94.1505 95.0016 87.7475C96.243 84.1539 96.439 79.7764 95.9817 76.0522C95.459 72.916 94.2829 69.7798 91.9961 67.4277Z" fill="#E5ADAF"/>
	<path d="M96.6345 86.6368C95.9811 89.6422 96.1118 91.7984 96.5038 93.3011L98.3986 86.6368H96.6345ZM95.8505 97.94C95.6545 97.8093 91.6689 94.2812 94.1517 84.8073L94.4131 83.7619H99.1826L101.861 74.2881L104.606 75.0721L102.123 83.7619H111.858V86.5714H101.273L98.0066 98.4627L95.8505 97.94Z" fill="#E5ADAF"/>
	<path d="M129.365 77.4238C125.053 77.6198 122.048 80.364 120.153 85.9829C123.616 82.7161 127.144 79.4492 129.365 77.4238ZM110.483 98.7889L107.543 97.9395L113.946 73.9609L116.69 74.6796L111.529 93.8887C112.901 92.6473 114.469 91.1445 116.233 89.5111C116.233 89.4458 116.233 89.4458 116.233 89.3804C118.324 78.9919 123.224 74.0263 130.803 74.549C130.868 74.549 133.612 77.2278 133.612 77.2278L133.547 77.2931C133.286 77.5545 131.391 79.3186 118.846 90.9485C118.65 92.3859 118.781 94.2807 120.022 95.1954C122.832 97.2208 129.627 92.974 131.783 91.3405L132.894 90.4912L134.592 92.7126L133.482 93.562C132.436 94.346 123.354 101.076 118.324 97.4169C117.082 96.5021 116.298 95.1954 116.037 93.4967C114.273 95.3261 112.77 96.6981 110.483 98.7889Z" fill="#E5ADAF"/>
</svg>
