<svg version="1.1" xmlns="http://www.w3.org/2000/svg" xmlns:xlink="http://www.w3.org/1999/xlink" style="display: none;">
	<symbol id="svg__logoHome" viewBox="0 0 205 54" fill="none">
		<path fill-rule="evenodd" clip-rule="evenodd" d="M26.0107 40.9979C26.9499 42.1356 27.9707 43.2327 29.0732 44.2485C34.1774 49.0837 40.6699 52.5374 47.979 54.0001V49.6931C41.9357 48.3117 36.5049 45.3455 32.2174 41.2823C30.8291 39.9415 29.5224 38.5194 28.3791 36.9753L26.0107 40.9979Z" fill="#EB3333"/>
		<path fill-rule="evenodd" clip-rule="evenodd" d="M10.2477 36.4875C15.0252 31.9773 17.9652 25.7606 17.9652 18.9345V0H22.4161V18.9345C22.4161 22.2663 22.9877 26.167 24.0086 29.1737C25.0294 26.167 25.6011 22.2663 25.6011 18.9345V0H30.0519V18.9345C30.0519 25.7606 32.9919 31.9773 37.7694 36.4875C40.6277 39.1692 44.0985 41.2414 47.9777 42.501V46.9299C42.8735 45.5484 38.2594 42.9479 34.6252 39.4942C31.8894 36.8938 29.6436 33.8058 28.0919 30.352C26.9486 33.3182 25.6419 36.1624 24.0494 38.2753C22.4569 36.1218 21.1502 33.3182 20.0069 30.352C18.4552 33.7651 16.2094 36.8938 13.4736 39.4942C9.79858 42.9479 5.22525 45.5484 0.121094 46.9299V42.501C3.87775 41.2414 7.38942 39.1692 10.2477 36.4875Z" fill="#EB3333"/>
		<path fill-rule="evenodd" clip-rule="evenodd" d="M37.1588 18.5282C37.1588 23.5259 39.323 28.0361 42.7938 31.3272C44.3047 32.7494 46.0605 33.9277 47.9797 34.8216V39.413C44.8355 38.2753 41.9772 36.5281 39.6497 34.2934C35.3622 30.2302 32.708 24.6636 32.708 18.5282V14.2618H37.1588V18.5282Z" fill="#EB3333"/>
		<path fill-rule="evenodd" clip-rule="evenodd" d="M10.8208 14.2209H15.2716V18.4873C15.2716 24.6227 12.6175 30.2299 8.32999 34.2525C6.00249 36.4872 3.14416 38.2344 0 39.3721V34.7807C1.91916 33.8868 3.67499 32.7085 5.18582 31.2864C8.65665 27.9952 10.8208 23.485 10.8208 18.4873V14.2209Z" fill="#EB3333"/>
		<path fill-rule="evenodd" clip-rule="evenodd" d="M19.6 36.9343C18.4566 38.4783 17.1908 39.9411 15.7616 41.2413C11.4741 45.3045 6.08416 48.23 0 49.6521V53.9591C7.26832 52.4964 13.8016 49.0426 18.9058 44.2074C20.0083 43.1917 21.0291 42.0946 21.9683 40.9569L19.6 36.9343Z" fill="#EB3333"/>
		<path fill-rule="evenodd" clip-rule="evenodd" d="M67.3343 43.2728H67.2118L64.1493 28.9703H59.5352V53.9996H63.2918V43.2728L62.5977 36.1215H62.761L65.456 49.0019H68.9676L71.581 36.1215H71.7443L71.1318 43.2728V53.9996H74.8885V28.9703H70.2743L67.3343 43.2728ZM80.9726 50.424V32.5459H84.7293V50.424H80.9726ZM86.8526 53.9996C87.8735 53.9996 88.486 53.3088 88.486 52.3743V30.6362C88.486 29.6611 87.8326 29.011 86.8526 29.011H78.8493C77.8285 29.011 77.216 29.7017 77.216 30.6362V52.3743C77.216 53.3495 77.8693 53.9996 78.8493 53.9996H86.8526ZM101.593 53.9996V45.792H97.8368V50.424H94.4068V32.5459H97.8368V36.1215H101.593V28.9703H92.2834C91.2626 28.9703 90.6501 29.6611 90.6501 30.5956V52.3337C90.6501 53.3089 91.3034 53.959 92.2834 53.959H101.593V53.9996ZM103.594 28.9703V53.9996H107.351V32.5459H112.578V28.9703H103.594ZM117.763 50.424V32.5459H121.52V50.424H117.763ZM123.684 53.9996C124.705 53.9996 125.318 53.3088 125.318 52.3743V30.6362C125.318 29.6611 124.664 29.011 123.684 29.011H115.681C114.66 29.011 114.048 29.7017 114.048 30.6362V52.3743C114.048 53.3495 114.701 53.9996 115.681 53.9996H123.684ZM131.238 32.5459H134.832V42.2163H131.238V32.5459ZM136.955 45.7513C137.976 45.7513 138.588 45.0606 138.588 44.126V30.5956C138.588 29.6204 137.935 28.9703 136.955 28.9703H127.482V53.9996H131.238V45.792H136.955V45.7513ZM151.533 53.9996V45.792H147.776V50.424H144.346V32.5459H147.776V36.1215H151.533V28.9703H142.223C141.202 28.9703 140.589 29.6611 140.589 30.5956V52.3337C140.589 53.3089 141.243 53.959 142.223 53.959H151.533V53.9996ZM153.533 28.9703V53.9996H157.29V32.5459H161.251V53.9996H165.008V28.9703H153.533ZM170.969 50.424V32.5459H174.726V50.424H170.969ZM176.849 53.9996C177.87 53.9996 178.482 53.3088 178.482 52.3743V30.6362C178.482 29.6611 177.829 29.011 176.849 29.011H168.846C167.825 29.011 167.213 29.7017 167.213 30.6362V52.3743C167.213 53.3495 167.866 53.9996 168.846 53.9996H176.849ZM184.403 32.5459H187.997V42.2163H184.403V32.5459ZM190.12 45.7513C191.141 45.7513 191.753 45.0606 191.753 44.126V30.5956C191.753 29.6204 191.1 28.9703 190.12 28.9703H180.647V53.9996H184.403V45.792H190.12V45.7513ZM193.06 32.5459H196.653V53.9996H200.41V32.5459H204.003V28.9703H193.06V32.5459Z" fill="#EB3333"/>
	</symbol>

	<symbol id="svg__visually-impaired" fill="none" viewBox="0 0 37 25">
		<path d="M35.5 9V5c0-1-.5-4-4.5-4M1 9V5c0-1 .5-4 4.5-4" stroke="currentColor" stroke-width="2" stroke-linecap="round"></path>
		<circle cx="8" cy="17" r="7" stroke="currentColor" stroke-width="2"></circle>
		<circle cx="29" cy="17" r="7" stroke="currentColor" stroke-width="2"></circle>
		<path d="M16 17h5" stroke="currentColor" stroke-width="2" stroke-linecap="round"></path>
	</symbol>

	<symbol id="svg__arrow-left" viewBox="0 0 47 16" fill="none">
		<path d="M46 9C46.5523 9 47 8.55228 47 8C47 7.44772 46.5523 7 46 7V9ZM0.292892 7.29289C-0.0976295 7.68342 -0.0976295 8.31658 0.292892 8.70711L6.65685 15.0711C7.04738 15.4616 7.68054 15.4616 8.07107 15.0711C8.46159 14.6805 8.46159 14.0474 8.07107 13.6569L2.41422 8L8.07107 2.34315C8.46159 1.95262 8.46159 1.31946 8.07107 0.928932C7.68054 0.538408 7.04738 0.538408 6.65685 0.928932L0.292892 7.29289ZM46 7L1 7V9L46 9V7Z" fill="currentColor"/>
	</symbol>

	<symbol id="svg__benefit-date" viewBox="0 0 89 91" fill="none">
		<path d="M80.2409 7.82402H71.962V5.35506C71.962 2.43782 69.6246 0.0644531 66.7516 0.0644531C63.8785 0.0644531 61.5411 2.43782 61.5411 5.35506V7.82402H32.3626V5.35506C32.3626 2.43782 30.0252 0.0644531 27.1522 0.0644531C24.2791 0.0644531 21.9417 2.43782 21.9417 5.35506V7.88927C21.7941 7.84782 21.6393 7.82402 21.4787 7.82402H14.5585C9.77011 7.82402 5.87443 11.7796 5.87443 16.6417V72.674C5.87443 73.648 6.65218 74.4375 7.61125 74.4375C8.57032 74.4375 9.34806 73.648 9.34806 72.674V25.9885H76.0662C77.0253 25.9885 77.8031 25.1989 77.8031 24.2249C77.8031 23.2509 77.0253 22.4614 76.0662 22.4614H9.34806V16.6417C9.34806 13.7245 11.6855 11.3511 14.5585 11.3511H21.4787C21.6393 11.3511 21.7941 11.3271 21.9417 11.2859V13.5555C21.9417 16.4728 24.2791 18.8461 27.1522 18.8461C30.0252 18.8461 32.3626 16.4728 32.3626 13.5555V11.3511H61.5411V13.5555C61.5411 16.4728 63.8785 18.8461 66.7516 18.8461C69.6246 18.8461 71.962 16.4728 71.962 13.5555V11.3511H80.2409C83.1139 11.3511 85.4513 13.7245 85.4513 16.6417V83.655C85.4513 85.4059 84.0485 86.8305 82.324 86.8305C80.5995 86.8305 79.1967 85.4059 79.1967 83.655V79.0929C79.1967 78.1189 78.419 77.3294 77.4599 77.3294H57.2571C56.298 77.3294 55.5203 78.1189 55.5203 79.0929C55.5203 80.0669 56.298 80.8565 57.2571 80.8565H75.7231V83.655C75.7231 84.8033 76.0093 85.8847 76.5125 86.8305H6.5999C4.87611 86.8305 3.47363 85.4064 3.47363 83.6561V80.8565H42.3479C43.307 80.8565 44.0847 80.0669 44.0847 79.0929C44.0847 78.1189 43.307 77.3294 42.3479 77.3294C33.2473 77.3294 25.2616 77.3294 16.4169 77.3294C-5.50453 77.3294 7.77562 77.3294 1.73682 77.3294C0.777746 77.3294 0 78.1189 0 79.0929V83.6561C0 87.3512 2.96075 90.3575 6.5999 90.3575H82.324C85.9637 90.3575 88.925 87.3509 88.925 83.655V16.6417C88.925 11.7796 85.0293 7.82402 80.2409 7.82402ZM28.889 13.5555C28.889 14.5279 28.1098 15.3191 27.1522 15.3191C26.1945 15.3191 25.4153 14.5279 25.4153 13.5555V5.35506C25.4153 4.38265 26.1945 3.59153 27.1522 3.59153C28.1098 3.59153 28.889 4.38265 28.889 5.35506V13.5555ZM68.4884 13.5555C68.4884 14.5279 67.7092 15.3191 66.7516 15.3191C65.7939 15.3191 65.0147 14.5279 65.0147 13.5555V5.35506C65.0147 4.38265 65.7939 3.59153 66.7516 3.59153C67.7092 3.59153 68.4884 4.38265 68.4884 5.35506V13.5555Z" fill="#B58485"/>
		<path d="M51.8747 77.8451C51.5519 77.517 51.1038 77.3301 50.647 77.3301C50.1902 77.3301 49.7421 77.517 49.419 77.8451C49.096 78.1748 48.9102 78.6281 48.9102 79.0919C48.9102 79.5574 49.0958 80.0107 49.419 80.3405C49.7421 80.6685 50.1902 80.8554 50.647 80.8554C51.1038 80.8554 51.5519 80.6685 51.8747 80.3405C52.1978 80.0107 52.3838 79.5557 52.3838 79.0919C52.3838 78.6281 52.1979 78.1748 51.8747 77.8451Z" fill="#B58485"/>
		<path d="M37.5539 62.9266C42.7019 62.9266 45.8699 59.7256 45.8699 55.3696C45.8699 51.0136 42.8009 49.3636 39.6659 48.8356L45.5069 43.2586V39.4306H29.8979V43.7866H38.9729L33.4619 49.3306L34.2539 52.5646H36.3659C39.2039 52.5646 40.8869 53.6206 40.8869 55.5016C40.8869 57.2836 39.5339 58.3726 37.6199 58.3726C35.2769 58.3726 33.6269 57.3826 32.0429 55.6006L28.5449 58.9336C30.5249 61.2766 33.3959 62.9266 37.5539 62.9266ZM53.661 62.5306H58.677V39.2656H55.212L48.579 41.2456L49.635 45.4036L53.661 44.4136V62.5306Z" fill="#EB3333"/>
	</symbol>

	<symbol id="svg__benefit-calendar" viewBox="0 0 89 91" fill="none" >
		<g clip-path="url(#clip0)">
			<path d="M80.2409 7.82206H71.962V5.35311C71.962 2.43587 69.6246 0.0625 66.7516 0.0625C63.8785 0.0625 61.5411 2.43587 61.5411 5.35311V7.82206H32.3626V5.35311C32.3626 2.43587 30.0252 0.0625 27.1522 0.0625C24.2791 0.0625 21.9417 2.43587 21.9417 5.35311V7.88731C21.7941 7.84587 21.6393 7.82206 21.4787 7.82206H14.5585C9.77011 7.82206 5.87443 11.7777 5.87443 16.6397V46.6786C5.87443 47.6526 6.65218 48.4421 7.61125 48.4421C8.57032 48.4421 9.34806 47.6526 9.34806 46.6786V25.9865H82.9066C83.8657 25.9865 84.6434 25.1969 84.6434 24.2229C84.6434 23.2489 83.8657 22.4594 82.9066 22.4594H9.34806V16.6397C9.34806 13.7225 11.6855 11.3491 14.5585 11.3491H21.4787C21.6393 11.3491 21.7941 11.3251 21.9417 11.2839V13.5536C21.9417 16.4708 24.2791 18.8442 27.1522 18.8442C30.0252 18.8442 32.3626 16.4708 32.3626 13.5536V11.3491H61.5411V13.5536C61.5411 16.4708 63.8785 18.8442 66.7516 18.8442C69.6246 18.8442 71.962 16.4708 71.962 13.5536V11.3491H80.2409C83.1139 11.3491 85.4513 13.7225 85.4513 16.6397V83.6531C85.4513 85.4039 84.0485 86.8285 82.324 86.8285C80.5995 86.8285 79.1967 85.4039 79.1967 83.6531V79.091C79.1967 78.117 78.419 77.3274 77.4599 77.3274H57.2571C56.298 77.3274 55.5203 78.117 55.5203 79.091C55.5203 80.065 56.298 80.8545 57.2571 80.8545H75.7231V83.6531C75.7231 84.8013 76.0093 85.8827 76.5125 86.8285H6.5999C4.87611 86.8285 3.47363 85.4044 3.47363 83.6541V80.8545H42.3479C43.307 80.8545 44.0847 80.065 44.0847 79.091C44.0847 78.117 43.307 77.3274 42.3479 77.3274H24.9943C28.0293 74.6735 29.9564 70.7479 29.9564 66.3715C29.9564 58.3976 23.5675 51.9105 15.7145 51.9105C7.86152 51.9105 1.47265 58.3976 1.47265 66.3715C1.47265 70.7479 3.39982 74.6735 6.43473 77.3274H1.73682C0.777746 77.3274 0 78.117 0 79.091V83.6541C0 87.3493 2.96075 90.3556 6.5999 90.3556H82.324C85.9637 90.3556 88.925 87.3489 88.925 83.6531V16.6397C88.925 11.7777 85.0293 7.82206 80.2409 7.82206ZM28.889 13.5536C28.889 14.526 28.1098 15.3171 27.1522 15.3171C26.1945 15.3171 25.4153 14.526 25.4153 13.5536V5.35311C25.4153 4.38069 26.1945 3.58957 27.1522 3.58957C28.1098 3.58957 28.889 4.38069 28.889 5.35311V13.5536ZM68.4884 13.5536C68.4884 14.526 67.7092 15.3171 66.7516 15.3171C65.7939 15.3171 65.0148 14.526 65.0148 13.5536V5.35311C65.0148 4.38069 65.7939 3.58957 66.7516 3.58957C67.7092 3.58957 68.4884 4.38069 68.4884 5.35311V13.5536ZM4.94628 66.3715C4.94628 60.3425 9.77688 55.4375 15.7145 55.4375C21.6522 55.4375 26.4828 60.3425 26.4828 66.3715C26.4828 72.4005 21.6522 77.3054 15.7145 77.3054C9.77688 77.3054 4.94628 72.4005 4.94628 66.3715Z" fill="#B58485"/>
			<path d="M51.8742 77.8431C51.5514 77.5151 51.1033 77.3281 50.6465 77.3281C50.1897 77.3281 49.7416 77.5151 49.4186 77.8431C49.0955 78.1729 48.9097 78.6261 48.9097 79.0899C48.9097 79.5555 49.0953 80.0087 49.4186 80.3385C49.7416 80.6665 50.1897 80.8534 50.6465 80.8534C51.1033 80.8534 51.5514 80.6665 51.8742 80.3385C52.1973 80.0087 52.3833 79.5537 52.3833 79.0899C52.3833 78.6261 52.1975 78.1729 51.8742 77.8431Z" fill="#B58485"/>
			<path d="M39.2913 53.6738C35.6522 53.6738 32.6914 56.6801 32.6914 60.3753C32.6914 64.0704 35.6522 67.0767 39.2913 67.0767C42.9305 67.0767 45.8912 64.0704 45.8912 60.3753C45.8912 56.6801 42.9305 53.6738 39.2913 53.6738ZM39.2913 63.5496C37.5675 63.5496 36.165 62.1256 36.165 60.3753C36.165 58.625 37.5675 57.2009 39.2913 57.2009C41.0151 57.2009 42.4176 58.625 42.4176 60.3753C42.4176 62.1256 41.0151 63.5496 39.2913 63.5496Z" fill="#EB3333"/>
			<path d="M55.5022 53.6738C51.8631 53.6738 48.9023 56.6801 48.9023 60.3753C48.9023 64.0704 51.8631 67.0767 55.5022 67.0767C59.1414 67.0767 62.1021 64.0704 62.1021 60.3753C62.1021 56.6801 59.1414 53.6738 55.5022 53.6738ZM55.5022 63.5496C53.7785 63.5496 52.376 62.1256 52.376 60.3753C52.376 58.625 53.7785 57.2009 55.5022 57.2009C57.226 57.2009 58.6285 58.625 58.6285 60.3753C58.6285 62.1256 57.226 63.5496 55.5022 63.5496Z" fill="#B58485"/>
			<path d="M71.7176 53.6738C68.0784 53.6738 65.1177 56.6801 65.1177 60.3753C65.1177 64.0704 68.0784 67.0767 71.7176 67.0767C75.3567 67.0767 78.3175 64.0704 78.3175 60.3753C78.3175 56.6801 75.3567 53.6738 71.7176 53.6738ZM71.7176 63.5496C69.9938 63.5496 68.5913 62.1256 68.5913 60.3753C68.5913 58.625 69.9938 57.2009 71.7176 57.2009C73.4414 57.2009 74.8438 58.625 74.8438 60.3753C74.8438 62.1256 73.4414 63.5496 71.7176 63.5496Z" fill="#B58485"/>
			<path d="M23.0882 35.332C19.449 35.332 16.4883 38.3383 16.4883 42.0335C16.4883 45.7286 19.449 48.7349 23.0882 48.7349C26.7273 48.7349 29.6881 45.7286 29.6881 42.0335C29.6881 38.3383 26.7273 35.332 23.0882 35.332ZM23.0882 45.2078C21.3644 45.2078 19.9619 43.7838 19.9619 42.0335C19.9619 40.2832 21.3644 38.8591 23.0882 38.8591C24.812 38.8591 26.2145 40.2832 26.2145 42.0335C26.2145 43.7838 24.812 45.2078 23.0882 45.2078Z" fill="#B58485"/>
			<path d="M71.7176 35.334C68.0784 35.334 65.1177 38.3403 65.1177 42.0354C65.1177 45.7306 68.0784 48.7369 71.7176 48.7369C75.3567 48.7369 78.3175 45.7306 78.3175 42.0354C78.3175 38.3403 75.3567 35.334 71.7176 35.334ZM71.7176 45.2098C69.9938 45.2098 68.5913 43.7857 68.5913 42.0354C68.5913 40.2851 69.9938 38.8611 71.7176 38.8611C73.4414 38.8611 74.8438 40.2851 74.8438 42.0354C74.8438 43.7857 73.4414 45.2098 71.7176 45.2098Z" fill="#B58485"/>
			<path d="M39.2913 35.332C35.6522 35.332 32.6914 38.3383 32.6914 42.0335C32.6914 45.7286 35.6522 48.7349 39.2913 48.7349C42.9305 48.7349 45.8912 45.7286 45.8912 42.0335C45.8912 38.3383 42.9305 35.332 39.2913 35.332ZM39.2913 45.2078C37.5675 45.2078 36.165 43.7838 36.165 42.0335C36.165 40.2832 37.5675 38.8591 39.2913 38.8591C41.0151 38.8591 42.4176 40.2832 42.4176 42.0335C42.4176 43.7838 41.0151 45.2078 39.2913 45.2078Z" fill="#B58485"/>
			<path d="M21.9011 62.0731C21.2227 61.3845 20.1233 61.3845 19.4447 62.0731L13.7886 67.8165L11.8557 65.8538C11.1773 65.1651 10.0779 65.1651 9.39929 65.8538C8.72107 66.5425 8.72107 67.6591 9.39929 68.348L12.5605 71.5575C12.8863 71.8881 13.328 72.074 13.7886 72.074C14.2492 72.074 14.6909 71.8881 15.0167 71.5575L21.9011 64.5671C22.5793 63.8785 22.5793 62.7618 21.9011 62.0731Z" fill="#EB3333"/>
			<circle cx="69.088" cy="36.316" r="12.8648" fill="white" stroke="#EB3333" stroke-width="3"/>
			<path d="M28.5978 66.4136C28.5978 73.5187 22.838 79.2784 15.733 79.2784C8.62793 79.2784 2.86816 73.5187 2.86816 66.4136C2.86816 59.3086 8.62793 53.5488 15.733 53.5488C22.838 53.5488 28.5978 59.3086 28.5978 66.4136Z" fill="white" stroke="#EB3333" stroke-width="3"/>
			<path d="M74.5739 32.0438C73.8955 31.3552 72.7961 31.3552 72.1175 32.0438L66.4614 37.7872L64.5285 35.8245C63.8501 35.1358 62.7507 35.1358 62.0721 35.8245C61.3939 36.5132 61.3939 37.6298 62.0721 38.3187L65.2333 41.5281C65.5591 41.8588 66.0008 42.0447 66.4614 42.0447C66.922 42.0447 67.3637 41.8588 67.6895 41.5281L74.5739 34.5378C75.2521 33.8492 75.2521 32.7325 74.5739 32.0438Z" fill="#EB3333"/>
			<path d="M21.2175 62.1415C20.5391 61.4528 19.4397 61.4528 18.7611 62.1415L13.105 67.8848L11.1721 65.9222C10.4937 65.2335 9.39427 65.2335 8.7157 65.9222C8.03747 66.6108 8.03747 67.7275 8.7157 68.4163L11.8769 71.6258C12.2027 71.9565 12.6444 72.1423 13.105 72.1423C13.5656 72.1423 14.0073 71.9565 14.3331 71.6258L21.2175 64.6355C21.8957 63.9468 21.8957 62.8302 21.2175 62.1415Z" fill="#EB3333"/>
		</g>
		<defs>
			<clipPath id="clip0">
				<rect width="88.925" height="90.2931" fill="white" transform="translate(0 0.0625)"/>
			</clipPath>
		</defs>
	</symbol>

	<symbol id="svg__benefit-girl" viewBox="0 0 109 91" fill="none">
		<path d="M97.7791 12.5432C95.4811 12.5432 93.2789 13.6922 91.9384 15.6071C90.2149 13.6922 87.8212 12.5432 85.2359 12.5432H81.5975C74.6078 12.5432 69.0543 18.1924 69.0543 25.0863V31.5015L47.415 9.86219C43.7765 6.22372 37.7443 6.22372 34.1059 9.86219C30.4674 13.5007 30.4674 19.5328 34.1059 23.1713L61.7774 50.8428L59.0964 62.8115L18.4988 20.4903L11.8921 5.93646C10.2643 2.29799 6.62585 0 2.60439 0C2.12564 0 1.64689 0.191504 1.35964 0.574501C0.976646 0.957498 0.785156 1.34048 0.785156 1.81923V30.6397C0.785156 31.1185 0.976646 31.5973 1.35964 31.8845C1.74264 32.2675 2.12564 32.459 2.60439 32.459H7.00885L37.7444 77.1739C40.4253 81.0038 43.8723 84.1636 47.9895 86.4615H25.8714V90.1H96.0556V86.27H76.2355C81.789 83.2061 86.2892 78.5143 88.9702 72.7694C92.4171 65.301 94.2364 57.258 94.2364 49.0236V46.0554C97.3004 49.8853 101.896 52.0876 106.78 52.0876C107.258 52.0876 107.737 51.8961 108.024 51.5131C108.407 51.1301 108.599 50.7471 108.599 50.2683V23.2671C108.599 17.4264 103.716 12.5432 97.7791 12.5432ZM79.7782 37.7252H77.959C74.9908 37.7252 72.5971 35.3315 72.5971 32.3632V25.1821C72.5971 24.6076 72.6928 23.9373 72.7885 23.3628H77.959V27.0013C77.959 27.48 78.1505 27.9588 78.5335 28.246L85.7147 35.4272C86.0977 35.8102 86.4807 36.0017 86.9594 36.0017H90.5979V41.3637H81.5975V39.5444C81.5975 39.0657 81.406 38.5869 81.023 38.2997C80.7357 37.9167 80.257 37.7252 79.7782 37.7252ZM81.5975 16.1816H85.2359C88.2042 16.1816 90.5979 18.5753 90.5979 21.5436V32.3632H87.7254L81.5975 26.2353V21.5436C81.5975 21.0648 81.406 20.5861 81.023 20.2988C80.64 19.9158 80.257 19.7243 79.7782 19.7243H74.4163C76.1398 17.5221 78.8207 16.1816 81.5975 16.1816ZM34.8719 16.6604C34.8719 14.2666 36.3081 12.1602 38.5103 11.2984C40.7126 10.4367 43.2021 10.9154 44.8298 12.5432L74.512 42.2254C76.81 44.5234 76.81 48.1619 74.512 50.4598C72.2141 52.7578 68.5756 52.7578 66.2776 50.4598L36.5954 20.7776C35.4464 19.6286 34.8719 18.1923 34.8719 16.6604ZM47.7023 56.3006L35.3506 67.3117L10.1686 30.7355L16.7753 24.1288L47.7023 56.3006ZM4.32786 3.82997C6.14709 4.40446 7.6791 5.64922 8.54085 7.46846L14.7645 21.1606L7.20034 28.7248H4.32786V3.82997ZM62.0646 86.27C53.4472 86.27 45.5 82.0571 40.6168 74.9716L37.3613 70.2799L50.1917 58.8858L58.7134 67.7905C58.9049 67.982 59.0964 68.0777 59.2879 68.1734L81.023 78.2271C76.044 83.3976 69.2458 86.27 62.0646 86.27ZM90.5979 49.1194C90.5979 56.7793 88.8744 64.3435 85.7147 71.3332C85.0444 72.7694 84.2784 74.1099 83.4167 75.3546L62.1604 65.5882L64.7456 53.9068C67.6181 56.1091 71.4481 56.3963 74.6078 54.8643C77.7675 53.2366 79.874 49.9811 79.874 46.4384C79.874 45.9596 79.874 45.4809 79.7782 45.0979H90.6936V49.1194H90.5979ZM104.96 48.4491C98.7366 47.5874 94.1406 42.2254 94.1406 36.0017V19.8201C94.1406 17.8094 95.7684 16.1816 97.7791 16.1816C101.705 16.1816 104.96 19.4371 104.96 23.3628V48.4491Z" fill="#B58485"/>
		<path d="M59.0029 62.8129L58.5242 62.3342L50.3855 53.8125L47.7045 56.2062L38.8956 64.0576L32.6719 69.6111L37.7466 76.9838C40.4276 80.8138 43.8745 83.9735 47.9917 86.2715C51.8217 88.378 56.9922 89.4312 62.2584 89.4312C67.4288 89.4312 72.5993 88.378 76.3335 86.2715C80.5465 83.9735 84.0892 80.718 86.7702 76.7923L62.2584 65.3982L59.0029 62.8129ZM62.0669 86.2715C53.4495 86.2715 45.5023 82.0585 40.6191 74.9731L37.3636 70.2813L50.194 58.8872L58.7157 67.7919C58.9072 67.9834 59.0987 68.0791 59.2902 68.1749L81.0252 78.2285C76.0463 83.399 69.2481 86.2715 62.0669 86.2715Z" fill="#EB3333"/>
		<path d="M18.6914 89.908H22.2341V86.2695H18.6914V89.908Z" fill="#B58485"/>
		<path d="M99.5977 89.908H103.236V86.2695H99.5977V89.908Z" fill="#B58485"/>
	</symbol>

	<symbol id="svg__benefit-pc" viewBox="0 0 126 103" fill="none">
		<path d="M1.36719 7.10547C1.36719 4.34405 3.60576 2.10547 6.36719 2.10547H116.758C119.519 2.10547 121.758 4.34404 121.758 7.10547V65.037H1.36719V7.10547Z" fill="white"/>
		<path d="M115.445 0H10.4185C4.67363 0 0 4.67382 0 10.4185V66.72V73.35C0 79.0946 4.67363 83.7685 10.4185 83.7685H49.2554L46.2246 98.9225H36.4119C35.3657 98.9225 34.5177 99.7705 34.5177 100.817C34.5177 101.863 35.3657 102.711 36.4119 102.711H89.4511C90.4973 102.711 91.3454 101.863 91.3454 100.817C91.3454 99.7705 90.4973 98.9225 89.4511 98.9225H79.6385L76.6077 83.7685H115.445C121.189 83.7685 125.863 79.0948 125.863 73.35V66.72V10.4185C125.863 4.67382 121.189 0 115.445 0ZM50.088 98.9225L53.1189 83.7685H72.7442L75.775 98.9225H50.088ZM122.075 73.35C122.075 77.0057 119.101 79.98 115.445 79.98H10.4185C6.76274 79.98 3.78846 77.0059 3.78846 73.35V68.6144H122.074L122.075 73.35ZM122.075 64.826H3.78846V61.0375V60.3874C3.78846 59.564 3.78846 60.1722 3.78846 59.126C3.78846 58.0798 3.78846 58.6872 3.78846 58.1959V57.249V10.4185C3.78846 6.76274 6.76255 3.78846 10.4185 3.78846H115.445C119.1 3.78846 122.075 6.76255 122.075 10.4185V64.826Z" fill="#B58485"/>
		<path d="M60 36.0995L69.6 52.3995L73.1 52.4995C74.2 52.4995 75.1 53.3995 75.1 54.4995C75.1 55.5995 74.2 56.4995 73.1 56.4995L68.5 56.3995C67.8 56.3995 67.2 55.9995 66.8 55.3995L56.2 37.3995C55.7 37.2995 55.3 37.1995 54.9 36.9995C54.8 36.9995 54.8 36.8995 54.7 36.8995C54.6 36.7995 54.5 36.7995 54.4 36.6995L47.2 55.0995C46.9 55.8995 46.1 56.3995 45.3 56.3995H41C39.9 56.3995 39 55.4995 39 54.3995C39 53.2995 39.9 52.3995 41 52.3995H44L51.4 33.4995C51.5 33.2995 51.6 32.9995 51.8 32.8995C51.8 32.4995 51.8 32.1995 51.9 31.7995C51.9 31.6995 51.9 31.6995 51.9 31.5995C52.2 30.4995 53 29.3995 54 28.5995C55.7 27.0995 58.3 25.9995 60.9 25.2995C63.1 24.6995 65.4 24.4995 67.2 24.7995L67.3 24.1995C68.1 20.0995 69.8 16.6995 72.5 14.3995C75.1 12.1995 78.5 10.9995 82.7 11.0995C83.8 11.0995 84.7 11.9995 84.7 13.1995C84.7 14.3995 83.8 15.1995 82.6 15.1995C79.4 15.0995 76.9 15.8995 75.1 17.4995C73.1 19.1995 71.9 21.6995 71.3 24.9995C71.1 25.1995 71 25.5995 71 25.9995C71.2 25.7995 71.4 25.4995 71.6 25.2995L71.7 25.1995C72.8 24.1995 74.3 23.4995 75.9 23.4995C77.6 23.4995 79.1 24.1995 80.2 25.2995C81.3 26.3995 82 27.8995 82 29.5995C82 31.2995 81.3 32.7995 80.2 33.8995C79.1 34.9995 77.6 35.6995 75.9 35.6995C74.2 35.6995 72.7 34.9995 71.6 33.8995C71.3 33.5995 71 33.1995 70.8 32.7995C70.8 33.7995 70.9 34.7995 71 35.7995C71.3 39.8995 72 44.1995 72.7 48.2995C72.9 49.3995 72.2 50.3995 71.1 50.5995C70 50.7995 69 50.0995 68.8 48.9995C68 44.6995 67.3 40.2995 67 36.0995C66.8 33.4995 66.7 30.9995 66.8 28.6995C65.6 28.3995 63.8 28.5995 61.9 29.0995C59.9 29.5995 57.9 30.4995 56.6 31.5995C56.2 31.9995 55.8 32.3995 55.7 32.6995C55.7 32.6995 55.8 32.7995 55.8 32.8995C55.9 33.0995 56.1 33.2995 56.3 33.3995H56.4C56.6 33.4995 56.8 33.4995 56.9 33.4995C57.9 32.4995 58.9 31.7995 60 31.1995C61.2 30.5995 62.4 30.1995 63.7 30.0995C64.8 29.9995 65.8 30.7995 65.9 31.8995C66 32.9995 65.2 33.9995 64.1 34.0995C63.3 34.1995 62.6 34.3995 61.9 34.7995C61.2 35.0995 60.6 35.4995 60 36.0995ZM77.4 28.0995C77 27.6995 76.5 27.4995 75.9 27.4995C75.4 27.4995 74.9 27.6995 74.5 28.0995L74.4 28.1995C74 28.5995 73.8 29.0995 73.8 29.6995C73.8 30.2995 74 30.7995 74.4 31.1995C74.8 31.5995 75.3 31.7995 75.9 31.7995C76.5 31.7995 77 31.5995 77.4 31.1995C77.8 30.7995 78 30.2995 78 29.6995C78 28.9995 77.8 28.4995 77.4 28.0995Z" fill="#EB3333"/>
	</symbol>

	<symbol id="svg__benefit-message" viewBox="0 0 117 101" fill="none">
		<path d="M1.36719 3.58984H93.0283V61.0491H19.1522L2.73526 75.4139L1.36719 61.0491V3.58984Z" fill="white"/>
		<path d="M110.657 24.5591H95.9489V6.44022C95.9489 3.33614 93.4235 0.810547 90.3192 0.810547H5.62945C2.52537 0.810547 0 3.33592 0 6.44022V73.3511C0 74.8394 0.888501 76.169 2.2635 76.7386C2.71979 76.9276 3.1972 77.0195 3.67029 77.0195C4.62239 77.0195 5.55609 76.6468 6.25903 75.9439L17.9186 64.2844H20.3376V82.4035C20.3376 85.5075 22.863 88.0331 25.9673 88.0331H61.4281C62.3689 88.0331 63.1315 87.2705 63.1315 86.3297C63.1315 85.389 62.3689 84.6263 61.4281 84.6263H25.9673C24.7418 84.6263 23.7445 83.6292 23.7445 82.4035V64.2844H90.3192C93.4233 64.2844 95.9489 61.759 95.9489 58.6547V46.5504C95.9489 45.6097 95.1862 44.847 94.2454 44.847C93.3047 44.847 92.542 45.6097 92.542 46.5504V58.6547C92.542 59.8802 91.545 60.8775 90.3192 60.8775H17.2131C16.7614 60.8775 16.328 61.0569 16.0087 61.3765L3.85017 73.535C3.81338 73.5716 3.72707 73.6577 3.56718 73.5914C3.40683 73.5244 3.40683 73.4028 3.40683 73.3508V6.44022C3.40683 5.21467 4.4039 4.21738 5.62945 4.21738H90.3192C91.5447 4.21738 92.542 5.21444 92.542 6.44022V39.0572C92.542 39.998 93.3047 40.7606 94.2454 40.7606C95.1862 40.7606 95.9489 39.998 95.9489 39.0572V27.9662H110.657C111.883 27.9662 112.88 28.9632 112.88 30.1888V97.0996C112.88 97.1516 112.88 97.2732 112.719 97.3395C112.559 97.406 112.473 97.3199 112.436 97.2831L100.278 85.1246C99.9585 84.8051 99.5251 84.6256 99.0734 84.6256H68.9209C67.9801 84.6256 67.2175 85.3883 67.2175 86.329C67.2175 87.2698 67.9801 88.0325 68.9209 88.0325H98.3679L110.027 99.692C110.731 100.395 111.664 100.768 112.616 100.768C113.089 100.768 113.567 100.676 114.023 100.487C115.398 99.9171 116.286 98.5875 116.286 97.0992V30.1888C116.286 27.0847 113.761 24.5591 110.657 24.5591Z" fill="#B58485"/>
		<path d="M50.4056 50.0699C49.6152 50.476 48.7985 50.8666 47.977 51.2312C47.1555 50.8666 46.3387 50.476 45.5484 50.0699C41.5612 48.0206 38.0215 45.472 35.0272 42.4947C34.3601 41.8315 33.2815 41.8344 32.6183 42.5015C31.9551 43.1686 31.958 44.2472 32.6251 44.9104C35.8682 48.1348 39.6922 50.89 43.991 53.0997C44.8634 53.548 45.765 53.9784 46.6706 54.3784C47.0857 54.5619 47.5314 54.6537 47.977 54.6537C48.4224 54.6537 48.868 54.5619 49.2829 54.3786C50.1891 53.9782 51.0906 53.548 51.963 53.0997C65.658 46.0598 72.8232 34.2422 72.8232 26.2069C72.8232 17.5138 66.1488 10.4414 57.9447 10.4414C54.2367 10.4414 50.6954 11.9016 47.977 14.5024C45.2585 11.9016 41.717 10.4414 38.009 10.4414C29.8043 10.4414 23.1289 17.5138 23.1289 26.2069C23.1289 29.9403 24.778 34.5643 27.6534 38.8932C28.174 39.677 29.2314 39.8903 30.0148 39.3697C30.7986 38.8492 31.0119 37.7919 30.4913 37.0083C27.9775 33.2236 26.5355 29.2864 26.5355 26.2066C26.5355 19.3921 31.6823 13.848 38.0088 13.848C41.3209 13.848 44.4716 15.3922 46.6533 18.0847C46.9767 18.484 47.463 18.7159 47.9767 18.7159C48.4905 18.7159 48.9768 18.484 49.3004 18.0847C51.4819 15.3922 54.6326 13.848 57.9447 13.848C64.2703 13.848 69.4164 19.3921 69.4164 26.2066C69.4164 31.6548 64.2553 42.9508 50.4056 50.0699V50.0699Z" fill="#EB3333"/>
		<path d="M101.169 71.5514C102.11 71.5514 102.873 70.7887 102.873 69.8479C102.873 68.9072 102.11 68.1445 101.169 68.1445H80.7737C79.833 68.1445 79.0703 68.9072 79.0703 69.8479C79.0703 70.7887 79.833 71.5514 80.7737 71.5514H101.169Z" fill="#EB3333"/>
		<path d="M73.2451 69.8479C73.2451 68.9072 72.4824 68.1445 71.5416 68.1445H31.8709C30.9302 68.1445 30.1675 68.9072 30.1675 69.8479C30.1675 70.7887 30.9302 71.5514 31.8709 71.5514H71.5416C72.4824 71.5514 73.2451 70.7887 73.2451 69.8479Z" fill="#EB3333"/>
		<path d="M53.3006 78.3111H101.172C102.113 78.3111 102.875 77.5485 102.875 76.6077C102.875 75.667 102.113 74.9043 101.172 74.9043H53.3006C52.3598 74.9043 51.5972 75.667 51.5972 76.6077C51.5972 77.5485 52.3596 78.3111 53.3006 78.3111Z" fill="#EB3333"/>
		<path d="M31.8709 74.9043C30.9302 74.9043 30.1675 75.667 30.1675 76.6077C30.1675 77.5485 30.9302 78.3111 31.8709 78.3111H44.0042C44.945 78.3111 45.7076 77.5485 45.7076 76.6077C45.7076 75.667 44.945 74.9043 44.0042 74.9043H31.8709Z" fill="#EB3333"/>
		<path d="M70.1453 54.6529H72.9464C73.8871 54.6529 74.6498 53.8902 74.6498 52.9495C74.6498 52.0088 73.8871 51.2461 72.9464 51.2461H70.1453C69.2046 51.2461 68.4419 52.0088 68.4419 52.9495C68.4419 53.8902 69.2046 54.6529 70.1453 54.6529Z" fill="#EB3333"/>
	</symbol>

	<symbol id="svg__symptoms-warn" viewBox="0 0 70 70" fill="none">
		<circle cx="35" cy="35" r="29" fill="#E5ACAE" stroke="#E5ACAE" stroke-width="2"/>
		<circle cx="35" cy="35" r="34" stroke="#EB3333" stroke-width="2"/>
		<path d="M33.2 40.67H36.14L37.785 25.2V24.5H31.555V25.2L33.2 40.67ZM31.835 49H37.505V43.4H31.835V49Z" fill="white"/>
	</symbol>

	<symbol id="svg__symptoms-checkbox" viewBox="0 0 31 32" fill="none">
		<path d="M31 16.1768C31 7.61634 24.0604 0.676758 15.5 0.676758C6.93959 0.676758 0 7.61634 0 16.1768C0 24.7372 6.93959 31.6768 15.5 31.6768C24.0604 31.6768 31 24.7372 31 16.1768Z" fill="#EB3333"/>
		<path d="M12.7585 20.1719L8.83027 16.1764L7.44141 17.5888L12.7585 22.9967L23.5614 12.0091L22.1724 10.5967L12.7585 20.1719Z" fill="white"/>
	</symbol>

	<symbol id="svg__footer-facebook" viewBox="0 0 12 20" fill="none">
		<path d="M10.999.004L8.405 0C5.492 0 3.61 1.932 3.61 4.922v2.27H1a.408.408 0 0 0-.408.407v3.288c0 .226.183.408.408.408H3.61v8.297c0 .226.182.408.408.408h3.402a.408.408 0 0 0 .408-.408v-8.297h3.049a.408.408 0 0 0 .407-.408l.002-3.288a.409.409 0 0 0-.408-.408h-3.05V5.268c0-.925.22-1.394 1.424-1.394L11 3.873a.408.408 0 0 0 .407-.408V.412A.408.408 0 0 0 11 .004z" fill="currentColor"/>
	</symbol>

	<symbol id="svg__footer-instagram" viewBox="0 0 21 21" fill="none">
		<path d="M5.3 0h9.9c1.5 0 2.8.6 3.7 1.6 1 1 1.6 2.3 1.6 3.7v9.9c0 1.5-.6 2.8-1.6 3.7-1 1-2.3 1.6-3.7 1.6H5.3c-1.5 0-2.8-.6-3.7-1.6-1-1-1.6-2.3-1.6-3.7V5.3c0-1.5.6-2.8 1.6-3.7C2.5.6 3.8 0 5.3 0zm9.9 4.1c.7 0 1.4.6 1.4 1.4 0 .7-.6 1.4-1.4 1.4-.7 0-1.4-.6-1.4-1.4 0-.8.6-1.4 1.4-1.4zm-4.9 1.2c1.4 0 2.6.6 3.5 1.5.9.9 1.5 2.1 1.5 3.5s-.6 2.6-1.5 3.5c-.9.9-2.1 1.5-3.5 1.5s-2.6-.6-3.5-1.5c-.9-.9-1.5-2.1-1.5-3.5s.6-2.6 1.5-3.5c.8-1 2.1-1.5 3.5-1.5zm1.4 3.5c-.4-.4-.9-.6-1.4-.6-.5 0-1 .2-1.4.6-.4.4-.6.9-.6 1.4 0 .5.2 1 .6 1.4.4.4.9.6 1.4.6.5 0 1-.2 1.4-.6.4-.4.6-.9.6-1.4-.1-.5-.3-1-.6-1.4zM15.2 3H5.3c-.6 0-1.2.3-1.6.7-.4.4-.7 1-.7 1.6v9.9c0 .6.3 1.2.7 1.6.4.4 1 .7 1.6.7h9.9c.6 0 1.2-.3 1.6-.7.4-.4.7-1 .7-1.6V5.3c0-.6-.3-1.2-.7-1.6-.4-.4-1-.7-1.6-.7z" fill="currentColor"/>
	</symbol>

	<symbol id="svg__footer-location" viewBox="0 0 14 18" fill="none">
		<path d="M4.35 6.95v.036l-.005.036c-.089.604.175 1.25.671 1.734.486.475 1.175.77 1.984.77.79 0 1.367-.282 1.867-.77.486-.474.783-1.141.783-1.92 0-1.422-1.165-2.577-2.65-2.577-1.473 0-2.65 1.143-2.65 2.69zm3.02 9.108l-.37.406-.37-.406c-.942-1.035-2.216-2.539-3.258-4.152-1.03-1.593-1.889-3.379-1.889-4.957 0-3.021 2.452-5.398 5.517-5.398 3.05 0 5.517 2.248 5.517 5.284 0 1.577-.858 3.39-1.886 5.01-1.042 1.642-2.317 3.175-3.261 4.213zM7 .5C3.415.5.5 3.363.5 6.835c0 1.673.894 3.678 2.151 5.625 1.244 1.927 2.794 3.721 4.002 4.958.049.046.084.06.116.068.048.012.105.014.231.014.085 0 .194-.04.403-.14 1.2-1.234 2.72-3.003 3.946-4.9 1.257-1.947 2.151-3.952 2.151-5.625C13.5 3.363 10.585.5 7 .5zm0 8.203c-1.082 0-1.9-.783-1.9-1.868 0-1.084.818-1.867 1.9-1.867.508 0 .978.244 1.312.57.333.325.588.789.588 1.297 0 1.111-.963 1.868-1.9 1.868z" fill="currentColor" stroke="currentColor"/>
	</symbol>

	<symbol id="svg__footer-email" viewBox="0 0 16 13" fill="none">
		<rect x="15" y="1" width="10.571" height="14" rx="1" transform="rotate(90 15 1)" stroke="currentColor" stroke-width="2"/>
		<path transform="scale(1.0302 .96886) rotate(45 -2.136 .885)" stroke="currentColor" stroke-width="2" d="M0-1h10.982"/>
		<path transform="matrix(.72846 -.68509 .72846 .68509 8 9.238)" stroke="currentColor" stroke-width="2" d="M0-1h10.982"/>
	</symbol>

	<symbol id="svg__registration-doc" viewBox="0 0 30 31" fill="none">
		<g clip-path="url(#clip0)">
			<path d="M25.4179 6.56063L19.7681 1.21559C19.1671 0.647051 18.3806 0.333984 17.5533 0.333984H6.79688C5.0199 0.333984 3.57422 1.77967 3.57422 3.55664V27.1113C3.57422 28.8883 5.0199 30.334 6.79688 30.334H23.2031C24.9801 30.334 26.4258 28.8883 26.4258 27.1113V8.90168C26.4258 8.0199 26.0584 7.1666 25.4179 6.56063ZM23.7106 7.36523H19.3359C19.1744 7.36523 19.043 7.23381 19.043 7.07227V2.94938L23.7106 7.36523ZM23.2031 28.5762H6.79688C5.98916 28.5762 5.33203 27.919 5.33203 27.1113V3.55664C5.33203 2.74893 5.98916 2.0918 6.79688 2.0918H17.2852V7.07227C17.2852 8.20307 18.2051 9.12305 19.3359 9.12305H24.668V27.1113C24.668 27.919 24.0108 28.5762 23.2031 28.5762Z" fill="#4F4F4F"/>
			<path d="M21.2695 12.0527H8.37891C7.89352 12.0527 7.5 12.4462 7.5 12.9316C7.5 13.417 7.89352 13.8105 8.37891 13.8105H21.2695C21.7549 13.8105 22.1484 13.417 22.1484 12.9316C22.1484 12.4462 21.7549 12.0527 21.2695 12.0527Z" fill="#4F4F4F"/>
			<path d="M21.2695 16.7402H8.37891C7.89352 16.7402 7.5 17.1337 7.5 17.6191C7.5 18.1045 7.89352 18.498 8.37891 18.498H21.2695C21.7549 18.498 22.1484 18.1045 22.1484 17.6191C22.1484 17.1337 21.7549 16.7402 21.2695 16.7402Z" fill="#4F4F4F"/>
			<path d="M12.6398 21.4277H8.37891C7.89352 21.4277 7.5 21.8212 7.5 22.3066C7.5 22.792 7.89352 23.1855 8.37891 23.1855H12.6398C13.1252 23.1855 13.5187 22.792 13.5187 22.3066C13.5187 21.8212 13.1252 21.4277 12.6398 21.4277Z" fill="#4F4F4F"/>
		</g>
		<defs>
			<clipPath id="clip0">
				<rect width="30" height="30" fill="white" transform="translate(0 0.333984)"/>
			</clipPath>
		</defs>
	</symbol>
</svg>